<svg xmlns="http://www.w3.org/2000/svg" viewBox="0 0 192 192" width="192" height="192">
  <defs>
    <linearGradient id="bg" x1="0" y1="0" x2="1" y2="1">
      <stop offset="0%" stop-color="#6B4226"/>
      <stop offset="100%" stop-color="#4A2E16"/>
    </linearGradient>
  </defs>
  <rect width="192" height="192" rx="32" fill="url(#bg)"/>
  <!-- Holzmaserung -->
  <line x1="0" y1="30" x2="192" y2="35" stroke="rgba(0,0,0,0.08)" stroke-width="1"/>
  <line x1="0" y1="60" x2="192" y2="58" stroke="rgba(0,0,0,0.06)" stroke-width="1"/>
  <line x1="0" y1="90" x2="192" y2="93" stroke="rgba(0,0,0,0.08)" stroke-width="1"/>
  <line x1="0" y1="120" x2="192" y2="118" stroke="rgba(0,0,0,0.06)" stroke-width="1"/>
  <line x1="0" y1="150" x2="192" y2="153" stroke="rgba(0,0,0,0.08)" stroke-width="1"/>
  <!-- Block 1 - Rot -->
  <rect x="30" y="40" width="38" height="38" rx="4" fill="#C0392B"/>
  <rect x="30" y="40" width="38" height="4" rx="2" fill="rgba(255,255,255,0.3)"/>
  <!-- Block 2 - Blau -->
  <rect x="76" y="40" width="38" height="38" rx="4" fill="#2980B9"/>
  <rect x="76" y="40" width="38" height="4" rx="2" fill="rgba(255,255,255,0.3)"/>
  <!-- Block 3 - Grün -->
  <rect x="30" y="86" width="38" height="38" rx="4" fill="#27AE60"/>
  <rect x="30" y="86" width="38" height="4" rx="2" fill="rgba(255,255,255,0.3)"/>
  <!-- Block 4 - Orange -->
  <rect x="76" y="86" width="38" height="38" rx="4" fill="#F39C12"/>
  <rect x="76" y="86" width="38" height="4" rx="2" fill="rgba(255,255,255,0.3)"/>
  <!-- Block 5 - Lila -->
  <rect x="122" y="40" width="38" height="38" rx="4" fill="#8E44AD"/>
  <rect x="122" y="40" width="38" height="4" rx="2" fill="rgba(255,255,255,0.3)"/>
  <!-- Text -->
  <text x="96" y="160" text-anchor="middle" font-family="sans-serif" font-weight="700" font-size="22" fill="#F5E6D0">BLOCK</text>
</svg>
